HIERARCHY
ROOT Hips
{
  OFFSET 52.5018 86.4694 24.3543
  CHANNELS 6 Xposition Yposition Zposition Zrotation Xrotation Yrotation
  JOINT spine
  {
    OFFSET 0 6.84637 0.3937
    CHANNELS 3 Zrotation Xrotation Yrotation
    JOINT spine1
    {
      OFFSET 0 9.49621 0
      CHANNELS 3 Zrotation Xrotation Yrotation
      JOINT spine2
      {
        OFFSET 0 9.09909 0
        CHANNELS 3 Zrotation Xrotation Yrotation
        JOINT Neck
        {
          OFFSET 0 23.3612 1.11378
          CHANNELS 3 Zrotation Xrotation Yrotation
          JOINT Head
          {
            OFFSET 0 7.05802 0
            CHANNELS 3 Zrotation Xrotation Yrotation
            End Site
            {
              OFFSET 0 17.0844 -5.63419
            }
          }
        }
        JOINT RightShoulder
        {
          OFFSET -3.83136 9.82631 -0.533491
          CHANNELS 3 Zrotation Xrotation Yrotation
          JOINT RightArm
          {
            OFFSET 0 12.8881 0
            CHANNELS 3 Zrotation Xrotation Yrotation
            JOINT RightArmRoll
            {
              OFFSET 0 6.50617 0
              CHANNELS 3 Zrotation Xrotation Yrotation
              JOINT RightForeArm
              {
                OFFSET 0 18.9501 0
                CHANNELS 3 Zrotation Xrotation Yrotation
                JOINT RightForeArmRoll
                {
                  OFFSET 0 7.30093 0
                  CHANNELS 3 Zrotation Xrotation Yrotation
                  JOINT RightHand
                  {
                    OFFSET 0 14.6514 0
                    CHANNELS 3 Zrotation Xrotation Yrotation
                    End Site
                    {
                      OFFSET 0 0 0
                    }
                  }
                }
              }
            }
          }
        }
        JOINT LeftShoulder
        {
          OFFSET 3.83136 9.82631 -0.533491
          CHANNELS 3 Zrotation Xrotation Yrotation
          JOINT LeftArm
          {
            OFFSET 0 12.8881 0
            CHANNELS 3 Zrotation Xrotation Yrotation
            JOINT LeftArmRoll
            {
              OFFSET 0 6.50617 0
              CHANNELS 3 Zrotation Xrotation Yrotation
              JOINT LeftForeArm
              {
                OFFSET 0 18.9501 0
                CHANNELS 3 Zrotation Xrotation Yrotation
                JOINT LeftForeArmRoll
                {
                  OFFSET 0 7.30093 0
                  CHANNELS 3 Zrotation Xrotation Yrotation
                  JOINT LeftHand
                  {
                    OFFSET 0 14.6514 0
                    CHANNELS 3 Zrotation Xrotation Yrotation
                    End Site
                    {
                      OFFSET 0 0 0
                    }
                  }
                }
              }
            }
          }
        }
      }
    }
  }
  JOINT RightUpLeg
  {
    OFFSET -6.06837 -1.11278 -0.933477
    CHANNELS 3 Zrotation Xrotation Yrotation
    JOINT RightUpLegRoll
    {
      OFFSET 0 17.1796 0
      CHANNELS 3 Zrotation Xrotation Yrotation
      JOINT RightLeg
      {
        OFFSET 0 -21.2743 0
        CHANNELS 3 Zrotation Xrotation Yrotation
        JOINT RightLegRoll
        {
          OFFSET 0 21.3439 0
          CHANNELS 3 Zrotation Xrotation Yrotation
          JOINT RightFoot
          {
            OFFSET 0 17.7652 0
            CHANNELS 3 Zrotation Xrotation Yrotation
            JOINT RightToeBase
            {
              OFFSET 0 14.8508 0
              CHANNELS 3 Zrotation Xrotation Yrotation
              End Site
              {
                OFFSET 0.0062947 7.19214 -0.829005
              }
            }
          }
        }
      }
    }
  }
  JOINT LeftUpLeg
  {
    OFFSET 6.06837 -1.11278 -0.933477
    CHANNELS 3 Zrotation Xrotation Yrotation
    JOINT LeftUpLegRoll
    {
      OFFSET 0 17.1797 0
      CHANNELS 3 Zrotation Xrotation Yrotation
      JOINT LeftLeg
      {
        OFFSET 0 21.2742 0
        CHANNELS 3 Zrotation Xrotation Yrotation
        JOINT LeftLegRoll
        {
          OFFSET 0 21.5412 0
          CHANNELS 3 Zrotation Xrotation Yrotation
          JOINT LeftFoot
          {
            OFFSET 0 17.5679 0
            CHANNELS 3 Zrotation Xrotation Yrotation
            JOINT LeftToeBase
            {
              OFFSET 0 14.8508 0
              CHANNELS 3 Zrotation Xrotation Yrotation
              End Site
              {
                OFFSET -0.0282102 7.19214 -0.829004
              }
            }
          }
        }
      }
    }
  }
}
MOTION
Frames: 12
Frame Time: 0.00208333
58.632 86.0263 19.3736 -2.47476 5.42179 0.94241 0.663068 -2.84791 -0.703283 1.29529 -1.70165 -1.46035 1.31258 -0.0570485 -1.4819 -21.6568 18.8897 1.31991 21.6871 15.1152 -7.29825 6.85542 -10.0135 -5.97361 -12.0067 58.9554 133.778 1.19325e-006 -2.23847e-006 -3.28202e-006 -10.6867 2.72902 2.29614 -5.97755e-006 -3.32188e-006 -3.00003 8.02888 -4.95146 0.697692 -32.3455 -12.0131 8.15616 43.0129 55.9766 -138.632 -3.68304e-006 -7.6833e-006 1.31604e-005 2.2264 13.8135 -1.50225 3.55972e-005 2.46331e-006 3 -8.02887 -4.95142 -0.697685 177.569 21.392 1.6152 -180 -1.52567e-005 179.046 173.438 26.2502 -178.813 5.17239e-006 1.25267e-006 0.471668 -23.256 71.8458 23.5006 8.24326 26.835 -3.57267 -173.119 21.5801 -4.30893 4.54188e-006 -4.6773e-006 -0.747548 -3.86722 -31.19 -0.541357 3.39869e-006 -3.05989e-006 -0.511236 31.3455 77.0911 -32.6633 -8.13081 25.2329 3.48532 
58.6687 85.8175 19.3144 -2.38206 5.46845 0.849908 0.64456 -2.85527 -0.686492 1.25894 -1.71591 -1.42519 1.2758 -0.0712815 -1.44613 -21.5209 19.0664 1.30668 21.4691 14.9576 -7.25352 6.99686 -9.9914 -5.93879 -13.784 58.7326 135.152 1.19325e-006 -2.23847e-006 -3.28202e-006 -10.6891 2.69772 2.28542 -5.97755e-006 -3.32188e-006 -3.00003 8.02888 -4.95146 0.697692 -31.9395 -11.9674 8.12266 43.705 55.8381 -139.559 -3.68304e-006 -7.6833e-006 1.31604e-005 2.43025 13.7371 -1.55766 3.55972e-005 2.46331e-006 3 -8.02887 -4.95142 -0.697685 177.371 21.9662 1.81784 -180 -1.52567e-005 179.053 173.268 27.3545 -178.705 5.17239e-006 1.25267e-006 0.483286 -24.3391 72.6287 24.5479 8.22246 26.5468 -3.55649 -173.123 21.9187 -4.44743 4.54188e-006 -4.6773e-006 -0.741122 -4.10228 -31.9653 -0.637797 3.39869e-006 -3.05989e-006 -0.508028 32.6208 77.5522 -33.9233 -8.13006 25.233 3.485 
58.6739 85.6379 19.3026 -2.2895 5.51602 0.758587 0.626534 -2.86176 -0.67046 1.22353 -1.72846 -1.3916 1.24 -0.0838144 -1.41194 -21.3908 19.2285 1.29361 21.2567 14.8082 -7.21017 7.1331 -9.97046 -5.90576 -15.5265 58.4926 136.499 1.19325e-006 -2.23847e-006 -3.28202e-006 -10.691 2.68 2.27599 -5.97755e-006 -3.32188e-006 -3.00003 8.02888 -4.95146 0.697692 -31.5419 -11.9262 8.09379 44.3765 55.6865 -140.453 -3.68304e-006 -7.6833e-006 1.31604e-005 2.62713 13.6678 -1.61141 3.55972e-005 2.46331e-006 3 -8.02887 -4.95142 -0.697685 177.171 22.5387 2.01886 -180 -1.52567e-005 179.061 173.097 28.4517 -178.594 5.17239e-006 1.25267e-006 0.493956 -25.5025 73.3936 25.677 8.2024 26.2664 -3.54092 -173.123 22.2633 -4.58893 4.54188e-006 -4.6773e-006 -0.733996 -4.34394 -32.7464 -0.740586 3.39869e-006 -3.05989e-006 -0.504041 33.9939 78.0036 -35.2758 -8.12935 25.233 3.48469 
58.7031 85.4123 19.2415 -2.19815 5.56441 0.669175 0.609395 -2.86716 -0.65568 1.18987 -1.73886 -1.36059 1.20597 -0.0941863 -1.38037 -21.2721 19.372 1.28258 21.0543 14.6712 -7.16854 7.2565 -9.95119 -5.87534 -17.2265 58.2384 137.82 1.19325e-006 -2.23847e-006 -3.28202e-006 -10.6937 2.67909 2.2685 -5.97755e-006 -3.32188e-006 -3.00003 8.02888 -4.95146 0.697692 -31.1576 -11.8912 8.07136 45.0269 55.52 -141.304 -3.68304e-006 -7.6833e-006 1.31604e-005 2.81322 13.6051 -1.66248 3.55972e-005 2.46331e-006 3 -8.02887 -4.95142 -0.697685 176.97 23.1048 2.21607 -180 -1.52568e-005 179.069 172.925 29.532 -178.482 5.17239e-006 1.25267e-006 0.503479 -26.7357 74.1292 26.878 8.1836 26.0012 -3.52634 -173.117 22.6115 -4.73255 4.54188e-006 -4.6773e-006 -0.726077 -4.59077 -33.5246 -0.849819 3.39869e-006 -3.05989e-006 -0.499112 35.4555 78.4389 -36.7105 -8.12867 25.233 3.48441 
58.7187 85.2271 19.2183 -2.1091 5.61355 0.582401 0.593554 -2.87123 -0.642647 1.15875 -1.74662 -1.33319 1.17452 -0.101936 -1.35245 -21.1703 19.493 1.27546 20.8665 14.5509 -7.12897 7.35943 -9.93412 -5.84834 -18.8769 57.9733 139.118 1.19325e-006 -2.23847e-006 -3.28202e-006 -10.6988 2.69825 2.2636 -5.97755e-006 -3.32188e-006 -3.00003 8.02888 -4.95146 0.697692 -30.7914 -11.8645 8.05713 45.6556 55.3366 -142.102 -3.68304e-006 -7.6833e-006 1.31604e-005 2.98467 13.5487 -1.70984 3.55972e-005 2.46331e-006 3 -8.02887 -4.95142 -0.697685 176.772 23.6597 2.40725 -180 -1.52568e-005 179.077 172.757 30.5857 -178.367 5.17239e-006 1.25267e-006 0.511656 -28.0222 74.8248 28.1347 8.16652 25.7586 -3.51313 -173.103 22.9607 -4.87739 4.54188e-006 -4.6773e-006 -0.717273 -4.8413 -34.291 -0.965548 3.39869e-006 -3.05989e-006 -0.493076 36.9909 78.852 -38.2117 -8.12807 25.2331 3.48415 
58.7495 85.0307 19.1897 -2.02343 5.66336 0.498993 0.579415 -2.87373 -0.631857 1.13095 -1.75131 -1.31043 1.14645 -0.106604 -1.32923 -21.091 19.5875 1.27412 20.6979 14.4512 -7.09178 7.43423 -9.91978 -5.82556 -20.471 57.7001 140.394 1.19325e-006 -2.23847e-006 -3.28202e-006 -10.7073 2.74074 2.26196 -5.97755e-006 -3.32188e-006 -3.00003 8.02888 -4.95146 0.697692 -30.4481 -11.8479 8.0529 46.2626 55.135 -142.838 -3.68304e-006 -7.6833e-006 1.31604e-005 3.13766 13.498 -1.7525 3.55972e-005 2.46331e-006 3 -8.02887 -4.95142 -0.697685 176.58 24.1985 2.59005 -180 -1.52568e-005 179.086 172.593 31.6032 -178.253 5.17239e-006 1.25267e-006 0.518285 -29.338 75.4702 29.4233 8.15165 25.5458 -3.50164 -173.081 23.3086 -5.02253 4.54188e-006 -4.6773e-006 -0.70749 -5.09393 -35.0371 -1.08777 3.39869e-006 -3.05989e-006 -0.485772 38.5789 79.2373 -39.7575 -8.12754 25.2331 3.48392 
58.7622 84.8275 19.144 -1.94222 5.71376 0.41968 0.567388 -2.87444 -0.623803 1.10727 -1.75244 -1.29333 1.12257 -0.107728 -1.31174 -21.0397 19.6516 1.28046 20.553 14.3764 -7.0573 7.47327 -9.90871 -5.80783 -22.0025 57.4218 141.649 1.19325e-006 -2.23847e-006 -3.28202e-006 -10.7208 2.8098 2.26422 -5.97755e-006 -3.32188e-006 -3.00004 8.02888 -4.95146 0.697692 -30.1325 -11.8432 8.06045 46.8477 54.9138 -143.502 -3.68304e-006 -7.6833e-006 1.31604e-005 3.26835 13.4526 -1.78941 3.55972e-005 2.46331e-006 3 -8.02887 -4.95142 -0.697685 176.397 24.7165 2.76208 -180 -1.52569e-005 179.095 172.436 32.5747 -178.14 5.17239e-006 1.25267e-006 0.523168 -30.6498 76.0557 30.7109 8.13945 25.3702 -3.49222 -173.051 23.6526 -5.16701 4.54188e-006 -4.6773e-006 -0.696635 -5.34697 -35.7541 -1.21642 3.39869e-006 -3.05989e-006 -0.477036 40.1912 79.5896 -41.3185 -8.1271 25.2332 3.48373 
58.7853 84.627 19.0981 -1.86656 5.76466 0.345192 0.557879 -2.8731 -0.618981 1.08851 -1.74957 -1.28292 1.10369 -0.104848 -1.30102 -21.022 19.6814 1.29635 20.4362 14.3306 -7.02585 7.46891 -9.90144 -5.79594 -23.4654 57.1411 142.887 1.19325e-006 -2.23847e-006 -3.28202e-006 -10.7406 2.90868 2.27104 -5.97755e-006 -3.32188e-006 -3.00004 8.02888 -4.95146 0.697692 -29.8494 -11.8524 8.08158 47.4114 54.6719 -144.084 -3.68304e-006 -7.6833e-006 1.31604e-005 3.37291 13.4121 -1.81958 3.55972e-005 2.46331e-006 3 -8.02887 -4.95142 -0.697685 176.226 25.209 2.92086 -180 -1.52569e-005 179.105 172.29 33.4905 -178.03 5.17239e-006 1.25267e-006 0.526105 -31.915 76.5724 31.955 8.13038 25.2391 -3.48523 -173.012 23.9903 -5.30986 4.54188e-006 -4.6773e-006 -0.684616 -5.59862 -36.4333 -1.35134 3.39869e-006 -3.05989e-006 -0.466706 41.792 79.9044 -42.8578 -8.12677 25.2332 3.48359 
58.8025 84.4315 19.0709 -1.79322 5.81693 0.274037 0.549797 -2.86953 -0.617072 1.07249 -1.74229 -1.27847 1.08763 -0.0975618 -1.2963 -21.0258 19.6723 1.31643 20.3379 14.3168 -6.99804 7.43184 -9.89887 -5.79158 -24.8744 56.8519 144.101 1.19325e-006 -2.23847e-006 -3.28202e-006 -10.7569 3.04379 2.28013 -5.97755e-006 -3.32188e-006 -3.00004 8.02888 -4.95146 0.697692 -29.5856 -11.8759 8.11762 47.9508 54.4097 -144.59 -3.68304e-006 -7.6833e-006 1.31604e-005 3.45787 13.3706 -1.84488 3.55972e-005 2.46331e-006 3 -8.02887 -4.95142 -0.697685 176.061 25.6856 3.07085 -180 -1.5257e-005 179.115 172.15 34.3703 -177.918 5.17239e-006 1.25267e-006 0.526506 -33.1474 77.0355 33.169 8.12399 25.1464 -3.4803 -172.962 24.3306 -5.45451 4.54188e-006 -4.67731e-006 -0.670726 -5.86113 -37.0951 -1.4996 3.39869e-006 -3.0599e-006 -0.453787 43.4175 80.1906 -44.4058 -8.12655 25.2332 3.4835 
58.8559 84.2287 18.9808 -1.71795 5.87145 0.203971 0.541656 -2.86386 -0.617173 1.0563 -1.73083 -1.27806 1.07144 -0.0860894 -1.29562 -21.0336 19.6253 1.33356 20.2438 14.3323 -6.97398 7.38117 -9.90114 -5.79522 -26.2503 56.5465 145.28 1.19325e-006 -2.23847e-006 -3.28202e-006 -10.7595 3.21674 2.28862 -5.97755e-006 -3.32188e-006 -3.00004 8.02888 -4.95146 0.697692 -29.3236 -11.9119 8.16752 48.4637 54.1304 -145.036 -3.68304e-006 -7.6833e-006 1.31604e-005 3.53385 13.3232 -1.8683 3.55972e-005 2.46331e-006 3 -8.02887 -4.95142 -0.697685 175.892 26.1607 3.21906 -180 -1.5257e-005 179.127 172.007 35.2438 -177.799 5.17239e-006 1.25267e-006 0.524098 -34.4026 77.4704 34.4072 8.11926 25.0774 -3.47666 -172.902 24.6844 -5.60532 4.54188e-006 -4.67731e-006 -0.654454 -6.14846 -37.7684 -1.66822 3.39869e-006 -3.0599e-006 -0.437599 45.1402 80.4619 -46.031 -8.1264 25.2333 3.48343 
58.8695 84.0311 18.9563 -1.64138 5.92789 0.135129 0.533644 -2.85633 -0.619076 1.04032 -1.71567 -1.28127 1.0555 -0.0709245 -1.29857 -21.0465 19.5449 1.34875 20.1548 14.3732 -6.95317 7.31761 -9.9075 -5.80556 -27.5913 56.2267 146.428 1.19325e-006 -2.23847e-006 -3.28202e-006 -10.7515 3.42254 2.29707 -5.97755e-006 -3.32188e-006 -3.00004 8.02888 -4.95146 0.697692 -29.0655 -11.9588 8.22946 48.953 53.8373 -145.426 -3.68304e-006 -7.6833e-006 1.31604e-005 3.60074 13.2729 -1.88971 3.55972e-005 2.46331e-006 3 -8.02887 -4.95142 -0.697685 175.72 26.6337 3.36503 -180 -1.52571e-005 179.14 171.861 36.109 -177.674 5.17239e-006 1.25267e-006 0.519273 -35.6783 77.8786 35.6674 8.11601 25.0297 -3.47415 -172.833 25.0497 -5.76162 4.54188e-006 -4.67731e-006 -0.636167 -6.45758 -38.4505 -1.85497 3.39869e-006 -3.0599e-006 -0.418684 46.9541 80.718 -47.7303 -8.12632 25.2333 3.4834 
58.9085 83.8399 18.8897 -1.56417 5.98595 0.0676507 0.525949 -2.8472 -0.622577 1.02492 -1.69731 -1.28771 1.04018 -0.0525612 -1.30476 -21.066 19.4359 1.36301 20.0718 14.4351 -6.93507 7.24184 -9.91717 -5.82133 -28.8961 55.8947 147.544 1.19325e-006 -2.23847e-006 -3.28202e-006 -10.7363 3.65613 2.30603 -5.97755e-006 -3.32188e-006 -3.00004 8.02888 -4.95146 0.697692 -28.8136 -12.0151 8.30166 49.4212 53.5331 -145.766 -3.68304e-006 -7.6833e-006 1.31604e-005 3.65841 13.2226 -1.90903 3.55972e-005 2.46331e-006 3 -8.02887 -4.95142 -0.697685 175.547 27.1038 3.50829 -180 -1.52571e-005 179.155 171.714 36.9644 -177.543 5.17239e-006 1.25267e-006 0.512426 -36.9719 78.2612 36.947 8.11406 25.0009 -3.47264 -172.755 25.4242 -5.9227 4.54188e-006 -4.67731e-006 -0.616237 -6.78525 -39.1386 -2.05752 3.39869e-006 -3.0599e-006 -0.397585 48.8517 80.9588 -49.4996 -8.12631 25.2334 3.48339 
